<?xml version="1.0" encoding="UTF-8"?>
<svg xmlns="http://www.w3.org/2000/svg" viewBox="0 0 64 64">
  <defs>
    <linearGradient id="rainbow" x1="0" y1="0" x2="64" y2="64" gradientUnits="userSpaceOnUse">
      <stop offset="0" stop-color="#ff3b3b"/>
      <stop offset="0.2" stop-color="#ff9a1f"/>
      <stop offset="0.4" stop-color="#ffe83a"/>
      <stop offset="0.6" stop-color="#3ad17a"/>
      <stop offset="0.8" stop-color="#2f8dff"/>
      <stop offset="1" stop-color="#a64bff"/>
    </linearGradient>
    <linearGradient id="rainbow-shade" x1="0" y1="0" x2="64" y2="64" gradientUnits="userSpaceOnUse">
      <stop offset="0" stop-color="#c42020"/>
      <stop offset="0.2" stop-color="#cc6a00"/>
      <stop offset="0.4" stop-color="#c9ad00"/>
      <stop offset="0.6" stop-color="#1d8a4a"/>
      <stop offset="0.8" stop-color="#1357c4"/>
      <stop offset="1" stop-color="#6b19c8"/>
    </linearGradient>
    <linearGradient id="rainbow-light" x1="0" y1="0" x2="64" y2="64" gradientUnits="userSpaceOnUse">
      <stop offset="0" stop-color="#ffb0b0"/>
      <stop offset="0.2" stop-color="#ffcf8a"/>
      <stop offset="0.4" stop-color="#fff59e"/>
      <stop offset="0.6" stop-color="#a7ebc2"/>
      <stop offset="0.8" stop-color="#a6cdff"/>
      <stop offset="1" stop-color="#d7b4ff"/>
    </linearGradient>
  </defs>
  <g transform="translate(32 32) scale(1.1) translate(-32 -32)" fill="#a96842">
    <path d="M32,34.63h0L15.16,57.8c1,.69,2.31,.76,3.38,.19l13.46-7.08h0v-16.28Z"/>
    <path d="M4.55,25.71c-.31,1.15,.03,2.38,.89,3.2l10.89,10.61v.21l-2.57,14.78c-.23,1.28,.32,2.57,1.4,3.29l16.84-23.17L4.55,25.71Z"/>
    <path d="M32,50.91l13.46,7.09c1.07,.57,2.38,.5,3.38-.19l-16.84-23.18v16.28Z"/>
    <path d="M59.45,25.71l-27.45,8.92h0l16.84,23.17c1.08-.72,1.63-2.01,1.4-3.29l-2.53-14.78v-.21l10.85-10.61c.86-.82,1.2-2.05,.89-3.2Z"/>
    <path d="M29.05,7.47l-6.74,13.63h-.12l-14.92,2.19c-1.31,.18-2.39,1.14-2.72,2.42l27.45,8.92h0V5.63c-1.26-.01-2.41,.7-2.95,1.84Z"/>
    <path d="M56.73,23.29l-14.92-2.17h-.12l-6.69-13.65c-.55-1.15-1.73-1.87-3-1.84v29l27.45-8.92c-.33-1.28-1.41-2.24-2.72-2.42Z"/>
  </g>
  <g>
    <path fill="url(#rainbow)" d="M32,34.63h0L15.16,57.8c1,.69,2.31,.76,3.38,.19l13.46-7.08h0v-16.28Z"/>
    <path fill="url(#rainbow-light)" d="M4.55,25.71c-.31,1.15,.03,2.38,.89,3.2l10.89,10.61v.21l-2.57,14.78c-.23,1.28,.32,2.57,1.4,3.29l16.84-23.17L4.55,25.71Z"/>
    <path fill="url(#rainbow-shade)" d="M32,50.91l13.46,7.09c1.07,.57,2.38,.5,3.38-.19l-16.84-23.18v16.28Z"/>
    <path fill="url(#rainbow)" d="M59.45,25.71l-27.45,8.92h0l16.84,23.17c1.08-.72,1.63-2.01,1.4-3.29l-2.53-14.78v-.21l10.85-10.61c.86-.82,1.2-2.05,.89-3.2Z"/>
    <path fill="url(#rainbow-light)" d="M29.05,7.47l-6.74,13.63h-.12l-14.92,2.19c-1.31,.18-2.39,1.14-2.72,2.42l27.45,8.92h0V5.63c-1.26-.01-2.41,.7-2.95,1.84Z"/>
    <path fill="url(#rainbow)" d="M56.73,23.29l-14.92-2.17h-.12l-6.69-13.65c-.55-1.15-1.73-1.87-3-1.84v29l27.45-8.92c-.33-1.28-1.41-2.24-2.72-2.42Z"/>
  </g>
</svg>
