<svg xmlns="http://www.w3.org/2000/svg" viewBox="0 0 64 64"><defs><style>.cls-1{opacity:0;}.cls-2{fill:#fff;}.cls-3{fill:#1778ff;}.cls-4{fill:#37b9ff;}.cls-5{fill:#0049c7;}.cls-6{fill:#96dbff;}</style></defs><title>Star Blue</title><g id="Layer_2" data-name="Layer 2"><g id="_001-100" data-name="001-100"><g class="cls-1"><rect class="cls-2" width="64" height="64"/></g><path class="cls-3" d="M32,34.67h0L14.89,58.21a3.29,3.29,0,0,0,3.43.19L32,51.21h0V34.67Z"/><path class="cls-4" d="M4.11,25.61A3.31,3.31,0,0,0,5,28.86L16.08,39.64l0,.21-2.57,15a3.3,3.3,0,0,0,1.42,3.34L32,34.67Z"/><path class="cls-5" d="M32,51.21,45.68,58.4a3.29,3.29,0,0,0,3.43-.19L32,34.67Z"/><path class="cls-3" d="M59.89,25.61,32,34.67h0L49.11,58.21a3.3,3.3,0,0,0,1.42-3.34L48,39.85l0-.21L59,28.86A3.31,3.31,0,0,0,59.89,25.61Z"/><path class="cls-6" d="M29,7.07,22.16,20.93,22,21,6.87,23.15a3.32,3.32,0,0,0-2.76,2.46L32,34.67h0V5.21A3.31,3.31,0,0,0,29,7.07Z"/><path class="cls-4" d="M57.13,23.15,42,21l-.13,0L35,7.07a3.31,3.31,0,0,0-3-1.86V34.67l27.89-9.06A3.32,3.32,0,0,0,57.13,23.15Z"/></g></g></svg>