<svg xmlns="http://www.w3.org/2000/svg" viewBox="0 0 64 64"><defs><style>.cls-1{opacity:0;}.cls-2{fill:#fff;}.cls-3{fill:#fdbc0d;}.cls-4{fill:#de6529;}.cls-5{fill:#fc9504;}</style></defs><title>Bell </title><g id="Layer_2" data-name="Layer 2"><g id="Layer_3" data-name="Layer 3"><g class="cls-1"><rect class="cls-2" width="64" height="64"/></g><circle class="cls-3" cx="32" cy="9.6" r="5.1"/><circle class="cls-4" cx="32" cy="52.13" r="7.37"/><path class="cls-5" d="M55,45.66l-4.52-4V27.71a18.52,18.52,0,0,0-37,0V41.65L9,45.66a3.7,3.7,0,0,0-1.24,2.77h0a3.7,3.7,0,0,0,3.7,3.7H52.58a3.7,3.7,0,0,0,3.7-3.7h0A3.7,3.7,0,0,0,55,45.66Z"/><path class="cls-3" d="M13.48,27.71V38.45A10.09,10.09,0,0,0,17.07,42c6.39,3.69,15.75-.57,20.91-9.51s4.17-19.18-2.21-22.87l-.24-.12a18.52,18.52,0,0,0-22,18.18Z"/><path class="cls-2" d="M26,22.47c-2.4,3.13-5.07,5.1-7,3.59s-1.62-5.28.79-8.4,5.94-4.42,7.91-2.91S28.37,19.35,26,22.47Z"/></g></g></svg>