<svg xmlns="http://www.w3.org/2000/svg" viewBox="0 0 128 128"><defs><style>.cls-1{fill:none;}.cls-2{fill:#37b9ff;}.cls-3{fill:#bdccd4;}.cls-4{fill:#fff;}.cls-5{fill:#0049c7;}.cls-6{fill:#1778ff;}.cls-7{fill:#96dbff;}</style></defs><title>Book </title><g id="Layer_2" data-name="Layer 2"><g id="_14-25" data-name="14-25"><rect class="cls-1" width="128" height="128"/><path class="cls-2" d="M111.74,24.7l-8.17-.13,2.21-9.71-3.86-6.39L46.42,8a27,27,0,0,0-4.12.26,12.84,12.84,0,0,0-3.12.82,6.38,6.38,0,0,0-2.1,1.34A4,4,0,0,0,36,12.24l-2.23,8.47L32.65,25l-2.27,8.59c-.69,2.59-1.6,6.06-2.29,8.66-.34,1.31-.8,3.05-1.15,4.36-.69,2.63-1.62,6.14-2.32,8.78l-2.34,8.86c-.35,1.33-.82,3.12-1.18,4.46l-2.37,9-2.39,9.06c-.36,1.37-.85,3.19-1.21,4.56l-2.43,9.19,0-.06a3.34,3.34,0,0,0,0,1.85,10.46,10.46,0,0,0,2.48,3.94,25.4,25.4,0,0,0,4.71,4,34.06,34.06,0,0,0,5.9,3.14,42.38,42.38,0,0,0,6.79,2.15A45.68,45.68,0,0,0,40,116.57L95.72,120l19.67-89.26Z"/><path class="cls-3" d="M100.67,19.68l5.71,9.61-18.53,80.5-50-2.64a13,13,0,0,1-8.67-4l-2-2.12,55.1,2.08Z"/><polygon class="cls-4" points="87.85 109.79 82.28 103.1 100.67 19.68 106.38 29.29 87.85 109.79"/><path class="cls-5" d="M80.77,100.38,85.06,106l-57-3.15a14.11,14.11,0,0,0-1.48,0,3,3,0,0,0-1.38.37,1,1,0,0,0-.36,1.19,6.62,6.62,0,0,0,1.56,2.43,14.53,14.53,0,0,0,2.77,2.47,11.25,11.25,0,0,0,2.56,1.33,10.46,10.46,0,0,0,2.18.56,14.58,14.58,0,0,0,1.57.16l56.18,3.33,4,5.31L40,116.57a45.68,45.68,0,0,1-7.39-1.07,42.38,42.38,0,0,1-6.79-2.15,34.06,34.06,0,0,1-5.9-3.14,25.4,25.4,0,0,1-4.71-4,10.46,10.46,0,0,1-2.48-3.94,3,3,0,0,1,.53-2.9,6.37,6.37,0,0,1,3.52-1.69,26.53,26.53,0,0,1,6.43-.32Z"/><polygon class="cls-6" points="91.67 114.69 111.73 24.7 115.39 30.74 95.72 120 91.67 114.69"/><polygon class="cls-6" points="80.77 100.39 101.92 8.47 105.78 14.86 85.06 106.02 80.77 100.39"/><polygon class="cls-7" points="77.43 58.31 36.27 57.48 46.28 19.06 86.59 19.06 77.43 58.31"/><polygon class="cls-7" points="73.35 75.81 31.81 74.59 34.13 65.69 75.47 66.7 73.35 75.81"/></g></g></svg>