<svg xmlns="http://www.w3.org/2000/svg" viewBox="0 0 128 128"><defs><style>.cls-1{fill:none;}.cls-2{fill:#fff;}.cls-3{fill:#e62e49;}.cls-4{fill:#bdccd4;}.cls-5{fill:#91aab8;}.cls-6{fill:#1a1a1a;}</style></defs><title>Calendar </title><g id="Layer_2" data-name="Layer 2"><g id="_14-25" data-name="14-25"><rect class="cls-1" width="128" height="128"/><path class="cls-2" d="M8,100.33a20,20,0,0,0,20,20h72a20,20,0,0,0,20-20V43.67H8Z"/><path class="cls-3" d="M100,14.33H28a20,20,0,0,0-20,20v7.34H120V34.33A20,20,0,0,0,100,14.33Z"/><rect class="cls-4" x="8" y="40.67" width="112" height="8"/><rect class="cls-5" x="84" y="7.67" width="14" height="20" rx="6.89"/><rect class="cls-5" x="30" y="7.67" width="14" height="20" rx="6.89"/><path class="cls-6" d="M30.2,95.54l8.55-8.8c3.2,3,6.58,4.68,10.15,4.68,3.2,0,4.92-1.42,4.92-3.45v-.12c0-2.09-1.84-3.45-5.66-3.45H42.07L40.16,78l9.48-7.5h-16V59.3h33.1v9.91l-9.66,7.26c6.46,1.72,10.65,5.47,10.65,12.24v.12c0,9.29-8.12,14.46-17.66,14.46C41.21,103.29,34.93,100.4,30.2,95.54Z"/><path class="cls-6" d="M83.65,71.61l-7,1.53L74.05,62.5,86.91,59H97.8v43.38H83.65Z"/></g></g></svg>