<?xml version="1.0" encoding="UTF-8"?>
<svg id="Layer_2" data-name="Layer 2" xmlns="http://www.w3.org/2000/svg" viewBox="0 0 64 64">
  <defs>
    <style>
      .cls-1 {
        fill: #f0ba84;
      }

      .cls-2 {
        fill: #fff;
      }

      .cls-3 {
        fill: #66c9ff;
      }

      .cls-4 {
        fill: #1778ff;
      }

      .cls-5 {
        fill: #cef;
      }

      .cls-6 {
        opacity: 0;
      }

      .cls-7 {
        fill: #fff2d4;
      }
    </style>
  </defs>
  <g id="Finals">
    <g id="Certificate">
      <g class="cls-6">
        <rect class="cls-2" width="64" height="64"/>
      </g>
      <g>
        <rect class="cls-1" x="4.5" y="9.93" width="55" height="40" rx="3" ry="3"/>
        <path class="cls-7" d="M55.5,41.93V17.93c-2.21,0-4-1.79-4-4H12.5c0,2.21-1.79,4-4,4v24c2.21,0,4,1.79,4,4H51.5c0-2.21,1.79-4,4-4Z"/>
        <path class="cls-4" d="M40,39.93v13.13c0,.8,.89,1.28,1.55,.83l2.95-1.96,2.95,1.96c.66,.44,1.55-.03,1.55-.83v-13.13h-9Z"/>
        <path class="cls-3" d="M52.24,40.24l-1.34-1.38,.27-1.91c.08-.53-.29-1.03-.82-1.12l-1.9-.33-.9-1.7c-.25-.48-.84-.67-1.32-.43l-1.73,.85-1.73-.85c-.48-.24-1.07-.05-1.32,.43l-.9,1.7-1.9,.33c-.53,.09-.89,.59-.82,1.12l.27,1.91-1.34,1.38c-.38,.39-.38,1,0,1.39l1.34,1.38-.27,1.91c-.08,.53,.29,1.03,.82,1.12l1.9,.33,.9,1.7c.25,.48,.84,.67,1.32,.43l1.73-.85,1.73,.85c.48,.24,1.07,.05,1.32-.43l.9-1.7,1.9-.33c.53-.09,.89-.59,.82-1.12l-.27-1.91,1.34-1.38c.38-.39,.38-1,0-1.39Z"/>
        <circle class="cls-5" cx="44.5" cy="40.93" r="4.5"/>
        <g>
          <rect class="cls-1" x="15" y="20.93" width="34" height="3" rx="1" ry="1"/>
          <rect class="cls-1" x="15.5" y="26.93" width="34" height="3" rx="1" ry="1"/>
          <rect class="cls-1" x="16" y="32.93" width="16.5" height="3" rx="1" ry="1"/>
        </g>
      </g>
    </g>
  </g>
</svg>