<svg xmlns="http://www.w3.org/2000/svg" viewBox="0 0 64 64"><defs><style>.cls-1,.cls-2{fill:#fff;}.cls-1{opacity:0;}.cls-2,.cls-3{fill-rule:evenodd;}.cls-3{fill:#96dbff;}</style></defs><title>Cloud</title><g id="Layer_2" data-name="Layer 2"><g id="Layer_2-2" data-name="Layer 2"><rect class="cls-1" width="64" height="64"/><path class="cls-2" d="M58.75,49.86a23.12,23.12,0,0,0-4.36-1.34c2.29-2.48,6.35-8,4.74-14.88-2.55-10.85-13.59-4.27-13.59-4.27s.33-22-15.11-16.42C16,18.2,19.55,35.79,19.55,35.79c-2.8-3.62-12.07-6.18-14,2.12C4.41,43,7.13,46.72,9,48.61a22,22,0,0,0-4,1.25c-1,.47-.31,2.11.9,2.11h52C59.06,52,59.77,50.33,58.75,49.86Z"/><path class="cls-3" d="M5.89,52h52c1.21,0,1.92-1.64.9-2.11a23.12,23.12,0,0,0-4.36-1.34s3.53-7.64-1.24-11.22c-5-3.78-10.92.65-10.92.65s-.46-13.9-12.73-9.76c-10.31,3.49-7.6,14.53-7.6,14.53s-8.27-4.79-12.16-1.59C6,44.18,9,48.61,9,48.61a22,22,0,0,0-4,1.25C4,50.33,4.68,52,5.89,52Z"/><path class="cls-2" d="M16.58,47.4c2-2.59,5.78-5.78,11.74-4.16.54.14,1-.51.53-.8-3.57-2.35-10-4.87-13.17,4.65C15.52,47.59,16.24,47.84,16.58,47.4Z"/></g></g></svg>