<svg xmlns="http://www.w3.org/2000/svg" viewBox="0 0 64 64"><defs><style>.cls-1{fill:none;}.cls-2{fill:#de6529;}.cls-3{fill:#fc9504;}.cls-4{fill:#fdbc0d;}</style></defs><title>Coin</title><g id="Layer_2" data-name="Layer 2"><g id="Layer_2-2" data-name="Layer 2"><rect class="cls-1" width="64" height="64"/><path class="cls-2" d="M26.43,4H37.57V9.59C42.08,14.7,45,22.84,45,32s-2.92,17.3-7.43,22.41V60H26.43C16.17,60,7.86,47.46,7.86,32S16.17,4,26.43,4Z"/><path class="cls-3" d="M45,32a42,42,0,0,1-.27,4.81H8.14A42,42,0,0,1,7.86,32c0-8,2.25-15.29,5.86-20.4H39.15C42.75,16.71,45,24,45,32Z"/><ellipse class="cls-4" cx="37.57" cy="32" rx="18.57" ry="28"/><ellipse class="cls-3" cx="38.84" cy="32" rx="10.32" ry="17.65"/><path class="cls-2" d="M44.88,32c0-8.49-3.51-15.57-8.18-17.26a6.28,6.28,0,0,1,2.14-.39c5.7,0,10.32,7.9,10.32,17.65S44.54,49.65,38.84,49.65a6.28,6.28,0,0,1-2.14-.39C41.37,47.57,44.88,40.49,44.88,32Z"/></g></g></svg>