<svg xmlns="http://www.w3.org/2000/svg" viewBox="0 0 64 64"><defs><style>.cls-1,.cls-4{fill:#fff;}.cls-1{opacity:0;}.cls-2{fill:#fec92b;}.cls-3{fill:#fee854;}.cls-5{fill:#f66;}</style></defs><title>Daily Rewards</title><g id="Layer_2" data-name="Layer 2"><g id="Finals"><rect class="cls-1" width="64" height="64"/><path class="cls-2" d="M32,43.75s-6.39,5.72-8.28,4.35,1.58-9.22,1.58-9.22-7.42-4.31-6.7-6.53S27.86,31,27.86,31s1.8-8.39,4.14-8.39S36.14,31,36.14,31s8.54-.88,9.26,1.35-6.7,6.53-6.7,6.53,3.47,7.84,1.58,9.22S32,43.75,32,43.75Z"/><path class="cls-2" d="M49.24,49.15s-5,2.16-5.81,1,2.77-5.19,2.77-5.19-3.58-4-2.71-5.23,5.8,1,5.8,1,2.74-4.65,4.14-4.19.81,5.83.81,5.83S59.51,43.53,59.5,45s-5.3,2.57-5.3,2.57.52,5.38-.88,5.83S49.24,49.15,49.24,49.15Z"/><path class="cls-2" d="M14.76,49.15s5,2.16,5.81,1-2.77-5.19-2.77-5.19,3.58-4,2.71-5.23-5.8,1-5.8,1S12,36.07,10.57,36.53s-.81,5.83-.81,5.83S4.49,43.53,4.5,45s5.3,2.57,5.3,2.57-.52,5.38.88,5.83S14.76,49.15,14.76,49.15Z"/><path class="cls-3" d="M14.71,40.72S12,36.07,10.57,36.53s-.81,5.83-.81,5.83S4.49,43.53,4.5,45s5.3,2.57,5.3,2.57S5.52,46,7.92,44.72s3.3-1.18,3.3-1.18-.33-4.65.59-5.2S15.5,42,15.5,42s2.68-2.09,5-2.26C19.63,38.5,14.71,40.72,14.71,40.72Z"/><ellipse class="cls-4" cx="7.92" cy="44.37" rx="1.25" ry="0.83" transform="translate(-12.77 4.33) rotate(-17.2)"/><path class="cls-3" d="M36.14,31s-1.8-8.39-4.14-8.39S27.86,31,27.86,31s-8.54-.88-9.26,1.35,6.7,6.53,6.7,6.53-2.36,5.35-2.12,8h0s2.91-7.13,4.38-8.52c0,0-4-2.43-3.47-3.9s5.56-1.28,5.56-1.28,1.32-7.67,3.81-5.32a9.27,9.27,0,0,1,2.78,5.32s5.37-2.24,8.2-1.69C42,30.4,36.14,31,36.14,31Z"/><ellipse class="cls-4" cx="23.56" cy="33.16" rx="2.62" ry="1.3"/><path class="cls-3" d="M53.43,36.53c-1.4-.46-4.14,4.19-4.14,4.19s-4.92-2.22-5.8-1,2.71,5.23,2.71,5.23-3-4.55.23-4.15S50.66,42,50.66,42s2.12-4.31,2.89-2.59a7.19,7.19,0,0,1,.29,3.93,27.16,27.16,0,0,1,3.83.07,22.62,22.62,0,0,0-3.43-1.09S54.82,37,53.43,36.53Z"/><ellipse class="cls-4" cx="51.89" cy="39.45" rx="1.53" ry="0.83" transform="translate(-9.25 62.06) rotate(-57.55)"/><path class="cls-5" d="M42.47,15.34c-1.14-.44-2.25-.46-2.81.56A42.87,42.87,0,0,0,38.06,22c-.36,1.59,2.41,2.66,3.22,1.23a44,44,0,0,0,2.91-5.61C44.45,16.51,43.61,15.78,42.47,15.34Z"/><path class="cls-5" d="M56.13,29.15c-.4-.91-1-1.57-1.94-1.32a37.4,37.4,0,0,0-4.48,2.58c-1.13.71-.16,2.93,1.13,2.59a36.69,36.69,0,0,0,4.94-1.53C56.58,31,56.53,30.07,56.13,29.15Z"/><path class="cls-5" d="M11.39,20.29c-.67.74-1,1.58-.41,2.31a36.36,36.36,0,0,0,4.18,3c1.11.74,2.75-1.05,1.9-2.09a38.17,38.17,0,0,0-3.41-3.88C12.86,19.13,12.06,19.55,11.39,20.29Z"/><path class="cls-5" d="M24.4,10.73c-1.44.35-2.57,1.1-2.44,2.5a54.51,54.51,0,0,0,2.62,7.26c.75,1.84,4.27,1,4.09-1a54.74,54.74,0,0,0-1-7.66C27.2,10.54,25.85,10.39,24.4,10.73Z"/><path class="cls-5" d="M11.5,29.74c-.23.68-.22,1.33.39,1.64a26.31,26.31,0,0,0,3.63.8c.95.17,1.51-1.48.66-1.92a26.32,26.32,0,0,0-3.37-1.58C12.14,28.55,11.73,29.06,11.5,29.74Z"/><path class="cls-5" d="M51.31,17.83c-.6-.6-1.31-.92-2-.44a32.63,32.63,0,0,0-2.76,3.46c-.68.92.79,2.38,1.71,1.7a31,31,0,0,0,3.45-2.76C52.24,19.14,51.92,18.44,51.31,17.83Z"/></g></g></svg>