<svg xmlns="http://www.w3.org/2000/svg" viewBox="0 0 64 64"><defs><style>.cls-1{fill:#1a1a1a;opacity:0;}.cls-2{fill:#37b9ff;}.cls-3{fill:#1778ff;}.cls-4{fill:#fec92b;}.cls-5{fill:#fdaf18;}.cls-6{fill:#96dbff;}</style></defs><title>Easter Egg Blue</title><g id="Layer_2" data-name="Layer 2"><g id="Layer_3" data-name="Layer 3"><rect class="cls-1" width="64" height="64"/><g id="Layer_2-2" data-name="Layer 2-2"><path class="cls-2" d="M55.63,36.37a23.63,23.63,0,0,1-47.26,0C8.37,23.31,19,4,32,4S55.63,23.31,55.63,36.37Z"/><path class="cls-3" d="M39.79,6.3c6.35,6.42,10.57,17,10.57,25A22.45,22.45,0,0,1,9.88,44.69a23.63,23.63,0,0,0,45.75-8.32C55.63,26,49,11.8,39.79,6.3Z"/></g><path class="cls-4" d="M9.88,44.69c.07.1.15.19.22.28,1,.93,2.14,1.86,3.54,3a55,55,0,0,0,9.51-2.94A63.75,63.75,0,0,0,32,50.35a63.75,63.75,0,0,0,8.85-5.3c1.42.56,2.57,1,3.68,1.36A22.41,22.41,0,0,0,50.36,31.3c0-.18,0-.37,0-.56-.63.65-1.31,1.32-2.11,2.1a48.14,48.14,0,0,1-8.47-3.48A56.55,56.55,0,0,1,32,35a56,56,0,0,1-7.76-5.65,48.14,48.14,0,0,1-8.47,3.48A67.55,67.55,0,0,1,10,26.63a33.66,33.66,0,0,0-1.61,9.74A23.66,23.66,0,0,0,9.88,44.69Z"/><path class="cls-5" d="M54,26.63c-1.29,1.57-2.36,2.77-3.68,4.11,0,.19,0,.38,0,.56a22.41,22.41,0,0,1-5.83,15.11A57.26,57.26,0,0,0,50.36,48c1.48-1.22,2.63-2.2,3.71-3.17a23.7,23.7,0,0,0,1.56-8.45A33.66,33.66,0,0,0,54,26.63Z"/><path class="cls-6" d="M44.27,12.23c-1.75.68-2.19,3.39-.82,6.29C45,21.73,48,23.78,50,22.82a2.9,2.9,0,0,0,1.46-2.68,40.1,40.1,0,0,0-4.91-7.77A3.17,3.17,0,0,0,44.27,12.23Z"/><path class="cls-6" d="M14,22.82c2,1,5-1.09,6.54-4.3,1.37-2.9.93-5.61-.82-6.29a3.17,3.17,0,0,0-2.27.14,40.33,40.33,0,0,0-4.91,7.76A2.9,2.9,0,0,0,14,22.82Z"/><ellipse class="cls-6" cx="32" cy="20.66" rx="5.34" ry="7.03"/><path class="cls-2" d="M49.13,23a2.33,2.33,0,0,0,.86-.22,2.9,2.9,0,0,0,1.46-2.68h0a40.82,40.82,0,0,0-4.91-7.76h0a3.13,3.13,0,0,0-2.17-.16A42.49,42.49,0,0,1,49.13,23Z"/></g></g></svg>