<svg xmlns="http://www.w3.org/2000/svg" viewBox="0 0 128 128"><defs><style>.cls-1{fill:none;}.cls-2{fill:#e62e49;}.cls-3{fill:#fdbc0d;}.cls-4{fill:#fff;}</style></defs><title>Fire </title><g id="Layer_2" data-name="Layer 2"><g id="_14-25" data-name="14-25"><rect class="cls-1" width="128" height="128"/><path class="cls-2" d="M104.34,70.65c-1-8-3.62-16.18-8.84-22.51l-8,11.31C84.74,37.74,70.81,22.1,55.16,8A93.67,93.67,0,0,1,44.84,48.74q-2.36-5.44-4.72-10.87c-14,16.91-17.79,27.93-16.65,44.22C24.58,97.78,37.1,114,52.52,118.33,82.54,126.75,108.17,102.15,104.34,70.65Z"/><path class="cls-3" d="M61.52,113.24c8.82,1.47,20.74-3,25.73-15.69,7-17.89-13-23.44-18-31.59-4.43-7.18-5-21.94-5-21.94s-19,9.4-13.84,28.73c4.48,17-9.23,13.37-6.16,1.2C44.25,74,25.46,107.2,61.52,113.24Z"/><path class="cls-4" d="M74.59,98.26c2.1,12.3-13.43,14.26-19.3,5.57-6.92-10.25,3.37-20.75,9.48-28.46C67.74,82.05,73,91.16,74.59,98.26Z"/></g></g></svg>