<svg xmlns="http://www.w3.org/2000/svg" viewBox="0 0 64 64"><defs><style>.cls-1{fill:none;}.cls-2{fill:#5414b3;}.cls-3{fill:#a0f;}.cls-4{fill:#e330ff;}.cls-5{fill:#ffa1e0;}</style></defs><title>Gem</title><g id="Layer_2" data-name="Layer 2"><g id="Layer_2-2" data-name="Layer 2"><rect class="cls-1" width="64" height="64"/><polygon class="cls-2" points="32 54.03 43.95 34.75 60 26.03 32 54.03"/><polygon class="cls-3" points="41.01 16.4 48.54 12.54 60 26.03 43.95 34.75 41.01 16.4"/><polygon class="cls-4" points="32 54.03 20.05 34.75 4 26.03 32 54.03"/><polygon class="cls-4" points="41.01 16.4 32 16.4 22.99 16.4 20.05 34.75 32 34.75 43.95 34.75 41.01 16.4"/><polygon class="cls-5" points="22.99 16.4 15.46 12.54 4 26.03 20.05 34.75 22.99 16.4"/><polygon class="cls-3" points="32 34.75 20.05 34.75 32 54.03 43.95 34.75 32 34.75"/><polygon class="cls-4" points="38.62 9.97 32 9.97 25.39 9.97 15.46 12.54 22.99 16.4 32 16.4 41.01 16.4 48.54 12.54 38.62 9.97"/><polygon class="cls-5" points="20.05 34.75 24.49 18.23 41.01 16.4 22.99 16.4 15.46 12.54 22.29 17.99 20.05 34.75"/></g></g></svg>