<svg xmlns="http://www.w3.org/2000/svg" viewBox="0 0 128 128"><defs><style>.cls-1{fill:none;}.cls-2{fill:#fee854;}.cls-3{fill:#fdbc0d;}.cls-4{fill:#e62e49;}.cls-5{fill:#a72d3e;}</style></defs><title>Gift Box </title><g id="Layer_2" data-name="Layer 2"><g id="_1-13" data-name="1-13"><rect class="cls-1" width="128" height="128"/><path class="cls-2" d="M98.67,12.49A11.91,11.91,0,0,0,90,8.88c-4.69,0-10.21,2.5-16,8.3C68.42,22.78,65.49,32,64,39c-1.49-7-4.42-16.25-10-21.85-5.8-5.8-11.32-8.31-16-8.3a12,12,0,0,0-8.64,3.61C23.82,18,24,27.16,34,37.13A33.77,33.77,0,0,0,46,44.3l12.25,3.32c1.68.31,3.17.53,4.35.68a12.26,12.26,0,0,0,2.84,0c1.18-.15,2.67-.37,4.35-.68L82,44.3a33.77,33.77,0,0,0,12-7.17C104,27.16,104.18,18,98.67,12.49ZM39.46,31.69c-4.46-4.46-8-10.42-4.69-13.76A4.26,4.26,0,0,1,38,16.57c2.87,0,6.72,2.21,10.56,6.05s6.28,10.73,7.67,16.74C50.19,38,43.32,35.56,39.46,31.69Zm49.08,0C84.68,35.56,77.81,38,71.8,39.36c1.39-6,3.8-12.88,7.67-16.74S87.16,16.57,90,16.57a4.26,4.26,0,0,1,3.2,1.36C96.58,21.27,93,27.23,88.54,31.69Z"/><path class="cls-3" d="M82.09,36a53,53,0,0,1-10.29,3.4,60.59,60.59,0,0,1,2-6.81,37.61,37.61,0,0,0-7.72-1.18A70.63,70.63,0,0,0,64,39a70.63,70.63,0,0,0-2.06-7.66,37.61,37.61,0,0,0-7.72,1.18,60.59,60.59,0,0,1,2,6.81A53.06,53.06,0,0,1,45.91,36,26.78,26.78,0,0,0,39.4,41.2,43.44,43.44,0,0,0,46,44.3l12.25,3.32c1.68.31,3.17.53,4.35.68a12.26,12.26,0,0,0,2.84,0c1.18-.15,2.67-.37,4.35-.68L82,44.3a43.44,43.44,0,0,0,6.58-3.1A26.51,26.51,0,0,0,82.09,36Z"/><path class="cls-4" d="M97,119.13H31a5.05,5.05,0,0,1-5-4.65L20.33,43.86h87.34L102,114.48A5.05,5.05,0,0,1,97,119.13Z"/><polygon class="cls-5" points="23.02 77.36 104.98 77.36 107.67 43.86 20.33 43.86 23.02 77.36"/><path class="cls-4" d="M105.78,66.92H22.22a5,5,0,0,1-5-4.6L16,49.36a5.06,5.06,0,0,1,5-5.5h85.88a5.06,5.06,0,0,1,5,5.5l-1.16,13A5,5,0,0,1,105.78,66.92Z"/><rect class="cls-3" x="53.37" y="43.86" width="21.26" height="75.26"/><polygon class="cls-2" points="74.63 54.95 53.37 48.02 53.37 74.02 74.63 80.94 74.63 54.95"/><polygon class="cls-2" points="53.37 97.73 74.63 104.66 74.63 88.45 53.37 81.53 53.37 97.73"/></g></g></svg>