<svg xmlns="http://www.w3.org/2000/svg" viewBox="0 0 64 64"><defs><style>.cls-1{fill:#fff;opacity:0;}.cls-2{fill:#37b9ff;}.cls-3{fill:#96dbff;}.cls-4{fill:#39b54a;}.cls-5{fill:#65d666;}</style></defs><title>Globe</title><g id="Layer_2" data-name="Layer 2"><g id="Finals"><rect class="cls-1" width="64" height="64"/><path class="cls-2" d="M59.4,29.66A27.5,27.5,0,0,0,29.85,4.59,22.51,22.51,0,1,1,5.71,28.94,23,23,0,0,1,6,23,27.5,27.5,0,1,0,59.4,29.66Z"/><path class="cls-3" d="M5.71,28.94A22.53,22.53,0,1,0,29.85,4.59h-.19A27.5,27.5,0,0,0,6,23,23,23,0,0,0,5.71,28.94Z"/><path class="cls-4" d="M5.78,24.41c.06-.47.15-.92.23-1.38-.13.38-.26.76-.38,1.14Z"/><path class="cls-4" d="M22.67,51.41a4.67,4.67,0,0,0,.9,2c.09.14.19.28.25.39a2.42,2.42,0,0,0,1.95,1.22h.35a2.41,2.41,0,0,0,1.73-1l.15-.19a3,3,0,0,0,.72-1.42c0-.12.05-.24.08-.37A9.7,9.7,0,0,0,29.05,50a4.33,4.33,0,0,1,0-.52,22.39,22.39,0,0,1-7.34-.91A7.89,7.89,0,0,1,22.67,51.41Z"/><path class="cls-4" d="M59.4,29.66a27.6,27.6,0,0,0-2.09-8.43l-.75.08L55,21.47h0a14.76,14.76,0,0,1-1.81.06,10.54,10.54,0,0,1-2.39-.5L50,20.79a1.13,1.13,0,0,0-.18,0,22.8,22.8,0,0,1,.81,4.34,22.45,22.45,0,0,1-1.23,9.43l.56.2a5.57,5.57,0,0,1,.7.25,1.81,1.81,0,0,1,1.07,1.11,5.84,5.84,0,0,1,0,3.46l-.24,1c-.14.5-.27,1-.39,1.55A5.17,5.17,0,0,0,54,48l.27.12A27.38,27.38,0,0,0,59.4,29.66Z"/><path class="cls-4" d="M51.06,12.18A27.69,27.69,0,0,0,40.69,5.9c-.44.53-.89,1.06-1.33,1.6a22.47,22.47,0,0,1,6.5,5.62,3.82,3.82,0,0,1,.85.13,5.6,5.6,0,0,0,2.08.24h.11A3.18,3.18,0,0,0,51.06,12.18Z"/><path class="cls-4" d="M29.86,4.59A22.15,22.15,0,0,1,36.07,6c0-.09,0-.17.07-.25.07-.26.14-.52.22-.79a.64.64,0,0,1,0-.07A27.16,27.16,0,0,0,29.86,4.59Z"/><path class="cls-5" d="M33.33,28.48a4,4,0,0,0-1.59-.21,4.53,4.53,0,0,0-2.53,1.19l-.18.15a1.84,1.84,0,0,1-.83.42c-.28,0-.58-.27-.78-.52A10.46,10.46,0,0,1,26.5,28l-.38-.7a4.78,4.78,0,0,0-3.63-2.42,15.09,15.09,0,0,0-1.7-.11h-.08a10.69,10.69,0,0,1-6.35-2.09c-.29-.23-.36-.4-.36-.43a.75.75,0,0,1,.28-.41,4.12,4.12,0,0,1,2.6-1,9.67,9.67,0,0,1,1,0l.52,0a4.35,4.35,0,0,0,2.74-1.15,5.12,5.12,0,0,1,3.24-1.52,3.31,3.31,0,0,0,3-3.49v-.23A6,6,0,0,0,27,12c-.73-1.67-1.52-3.34-2.28-5-.21-.44-.43-.89-.64-1.34A27.56,27.56,0,0,0,6,23c-.08.46-.17.91-.23,1.38a7.83,7.83,0,0,0,1.9,2.13l.76.58a51.53,51.53,0,0,0,4.44,3.22A1.9,1.9,0,0,1,14,32.28a6.74,6.74,0,0,0,2.81,6,3.93,3.93,0,0,1,1.79,3.72A6,6,0,0,0,20.47,47a6.89,6.89,0,0,1,1.25,1.62,22.39,22.39,0,0,0,7.34.91c.09-1.89.86-2.08,1.13-2.14a2.75,2.75,0,0,0,1.93-1.43,3,3,0,0,0,0-2.63c-.42-1-.43-1.95.86-3.24.55-.55,1.1-1.1,1.64-1.66s1.31-1.33,2-2a4,4,0,0,0,.9-4.47A6.51,6.51,0,0,0,33.33,28.48Z"/><path class="cls-5" d="M50.6,25.1a22.8,22.8,0,0,0-.81-4.34,6.08,6.08,0,0,0-1.92-.17,5.65,5.65,0,0,0-4.13,2.46,10.68,10.68,0,0,0-1.84,5.1,3.89,3.89,0,0,0,2.4,4.28l1.37.58L49,34.39l.4.14A22.45,22.45,0,0,0,50.6,25.1Z"/><path class="cls-5" d="M43.69,13.87l.44-.26a2.76,2.76,0,0,1,1.34-.5,2.54,2.54,0,0,1,.39,0,22.47,22.47,0,0,0-6.5-5.62c-.28.34-.56.66-.84,1l-.77.92a2.41,2.41,0,0,0,.1,3.18l.31.33.33.35a3.6,3.6,0,0,0,3.12,1.4,3.93,3.93,0,0,0,1.9-.71Z"/><path class="cls-5" d="M28.29,5.87a13.9,13.9,0,0,0,.84,2A3.55,3.55,0,0,0,32.55,9.8a3.59,3.59,0,0,0,2.89-2.05A9.14,9.14,0,0,0,36.07,6a22.15,22.15,0,0,0-6.21-1.37h-.2c-.59.05-1.17.12-1.75.21,0,.08.05.16.08.25Q28.16,5.48,28.29,5.87Z"/></g></g></svg>