<svg xmlns="http://www.w3.org/2000/svg" viewBox="0 0 64 64"><defs><style>.cls-1{fill:#fff;opacity:0;}.cls-2{fill:#65d666;}.cls-3{fill:#39b54a;}</style></defs><title>Leaf</title><g id="Layer_2" data-name="Layer 2"><g id="Layer_2-2" data-name="Layer 2"><rect class="cls-1" width="64" height="64"/><path class="cls-2" d="M53.84,18.05c-9-7.36-22.25-5.86-28.61,4-3.46,5.39-6.44,11.85-13.52,13-.62.09-7.07.16-7.23-1.13.69,10.93,7,19.2,17.75,21.57a29.11,29.11,0,0,0,16.86-1c6.76-2.65,14.57-8.21,18.07-14.69C61,32.8,60.28,23.33,53.84,18.05Z"/><path class="cls-2" d="M47.27,17s-.61-1.66-1-7.12a2,2,0,0,1,2-2.13,18.74,18.74,0,0,1,9.65,2.94,2,2,0,0,1-.1,3.33A21,21,0,0,1,47.27,17Z"/><path class="cls-3" d="M11.64,43.14a38.61,38.61,0,0,0,5.75-.25c.93-.17,1.84-.22,2.74-.46l1.33-.28c.44-.1.87-.26,1.3-.38a33.17,33.17,0,0,0,9.54-4.56l2.14-1.59c.71-.54,1.33-1.2,2-1.78l1-.89c.33-.31.62-.66.95-1q.93-1,1.92-2c.66-.66,1.2-1.43,1.83-2.13s1.24-1.43,1.88-2.15a58.34,58.34,0,0,1,3.72-4.54,51.43,51.43,0,0,1-1.59,5.77c-.4.92-.83,1.82-1.27,2.73L44.26,31a8.62,8.62,0,0,1-.75,1.32c-.56.84-1.14,1.68-1.74,2.51-.3.41-.57.85-.91,1.23L39.8,37.2c-.72.74-1.4,1.52-2.19,2.2l-2.47,1.92a24.74,24.74,0,0,1-11.69,4.31c-.52,0-1,.11-1.55.11s-1,0-1.56-.05a20.94,20.94,0,0,1-3.06-.36A16.91,16.91,0,0,1,11.64,43.14Z"/></g></g></svg>