<svg xmlns="http://www.w3.org/2000/svg" viewBox="0 0 64 64"><defs><style>.cls-1{fill:none;}.cls-2{fill:#FFC107;}.cls-3{fill:#E65100;}.cls-4{fill:#F57C00;}.cls-5{fill:#FFF59D;}.cls-6{fill:#fff;}</style></defs><title>Lightning Bolt</title><g id="Layer_2" data-name="Layer 2"><g id="Layer_2-2" data-name="Layer 2"><rect class="cls-1" width="64" height="64"/><path class="cls-2" d="M33,59.3A59.08,59.08,0,0,0,49,33.75a2.58,2.58,0,0,0-2.62-3.33,21.86,21.86,0,0,0-9.6,2.86S45,18.46,44.56,6.5A2.58,2.58,0,0,0,41.9,4c-5.37.16-18.39,1.26-26.13,7.91a2.61,2.61,0,0,0-.91,2.17c.35,4.55,1.68,20.59,4.29,32.46a2.6,2.6,0,0,0,2.87,2,34.58,34.58,0,0,0,8.2-2.2,34.89,34.89,0,0,0-1.61,11.16A2.59,2.59,0,0,0,33,59.3Z"/><path class="cls-3" d="M40.62,31.56l-.4.14A2.44,2.44,0,0,0,40.62,31.56Z"/><path class="cls-4" d="M33,59.3A59.08,59.08,0,0,0,49,33.75a2.58,2.58,0,0,0-2.62-3.33,22.35,22.35,0,0,0-5.08.91c3.1-.55,3,6-2.07,12.58-5.45,7-9,2.44-9,2.44a34.89,34.89,0,0,0-1.61,11.16A2.59,2.59,0,0,0,33,59.3Z"/><path class="cls-5" d="M41.94,21.31c1.54-4.61,2.79-9.95,2.62-14.81A2.61,2.61,0,0,0,41.87,4c-5.39.17-18.37,1.27-26.1,7.91a2.61,2.61,0,0,0-.91,2.17c.28,3.74,1.24,15.23,3,25.8h0c-.59-10.32,1-17.27,3-21.87A17.35,17.35,0,0,1,34.18,7.79C46.73,6,41.94,21.31,41.94,21.31Z"/><ellipse class="cls-6" cx="23.56" cy="19.12" rx="6.48" ry="5.26" transform="translate(-2.59 34.5) rotate(-69.52)"/><path class="cls-5" d="M46.41,30.42a21.86,21.86,0,0,0-9.6,2.86s11.49-3.56,12,1c.06-.19.12-.37.17-.56A2.58,2.58,0,0,0,46.41,30.42Z"/><path class="cls-4" d="M18.43,43c.23,1.21.47,2.4.72,3.55a2.6,2.6,0,0,0,2.87,2,34.58,34.58,0,0,0,8.2-2.2l2.18-5.7S20.37,50.47,18.43,43Z"/></g></g></svg>