<svg xmlns="http://www.w3.org/2000/svg" viewBox="0 0 64 64"><defs><style>.cls-1{fill:#1a1a1a;opacity:0;}.cls-2{fill:#abc0c9;}.cls-3{fill:#fec92b;}.cls-4{fill:#fee854;}.cls-5{fill:#d1523f;}.cls-6{fill:#d3dee3;}</style></defs><title>Lock</title><g id="Layer_2" data-name="Layer 2"><g id="Layer_3" data-name="Layer 3"><rect class="cls-1" width="64" height="64"/><path class="cls-2" d="M46.32,44H17.68V23.32a14.32,14.32,0,1,1,28.64,0h0ZM23.46,39.11H40.54v-16a8.54,8.54,0,1,0-17.08,0h0Z"/><path class="cls-3" d="M47.33,25.67H16.66A3.33,3.33,0,0,0,13.33,29V51.67A3.34,3.34,0,0,0,16.66,55H47.33a3.33,3.33,0,0,0,3.33-3.33h0V29A3.33,3.33,0,0,0,47.33,25.67Z"/><path class="cls-4" d="M47,25.67H17v9.55a6,6,0,0,0,4.52,5.84A42.62,42.62,0,0,0,32,42.33a43.11,43.11,0,0,0,10.48-1.27A6,6,0,0,0,47,35.22Z"/><path class="cls-5" d="M35,41.31a5,5,0,1,0-5.77.19l-1.05,5.69a1,1,0,0,0,1,1.15h6a1,1,0,0,0,.95-1.15Z"/><path class="cls-6" d="M25.26,14.81c2.71-2.21,5-3.89,4.31-4.72a2.43,2.43,0,0,0-2-.37A14.37,14.37,0,0,0,20,15.5c-.49,1.17-.57,2.16-.24,2.57C20.45,18.9,22.56,17,25.26,14.81Z"/></g></g></svg>