<svg xmlns="http://www.w3.org/2000/svg" viewBox="0 0 64 64"><defs><style>.cls-1{fill:#fff;opacity:0;}.cls-2{fill:#e8f4fa;}.cls-3{fill:#bfd9e6;}</style></defs><title>Moon</title><g id="Layer_2" data-name="Layer 2"><g id="Layer_2-2" data-name="Layer 2"><rect class="cls-1" width="64" height="64"/><path class="cls-2" d="M44.52,4.73a1.72,1.72,0,0,0-2.26,2.48,25.1,25.1,0,0,1,4.33,15.41,25.33,25.33,0,0,1-24,24A25.1,25.1,0,0,1,7.21,42.26a1.72,1.72,0,0,0-2.48,2.26A29.24,29.24,0,1,0,44.52,4.73Z"/><path class="cls-3" d="M45.49,5.32A28.49,28.49,0,1,1,5.32,45.49,29.23,29.23,0,1,0,45.49,5.32Z"/></g></g></svg>