<svg xmlns="http://www.w3.org/2000/svg" viewBox="0 0 64 64"><defs><style>.cls-1{fill:#1a1a1a;opacity:0;}.cls-2{fill:#ffdfb5;}.cls-3{fill:#ebb369;}.cls-4{fill:#e62e49;}.cls-5{fill:#a72d3e;}.cls-6{fill:#dce9f0;}.cls-7{fill:#fff;}</style></defs><title>Mushroom Red</title><g id="Layer_2" data-name="Layer 2"><g id="Finals"><rect class="cls-1" width="64" height="64"/><path class="cls-2" d="M48,45.82c0,10.38-7.18,11.62-16,11.62S16,56.2,16,45.82s7.18-20.08,16-20.08S48,35.45,48,45.82Z"/><path class="cls-3" d="M32,25.74c-8.86,0-16,9.71-16,20.08a17.93,17.93,0,0,0,.21,2.86A41.05,41.05,0,0,0,32,51.77a41.05,41.05,0,0,0,15.83-3.09A17.93,17.93,0,0,0,48,45.82C48,35.45,40.86,25.74,32,25.74Z"/><path class="cls-4" d="M59.5,31.55C59.5,44.46,47.19,46,32,46S4.5,44.46,4.5,31.55s12.31-25,27.5-25S59.5,18.64,59.5,31.55Z"/><path class="cls-5" d="M38.42,41.31A31.9,31.9,0,0,1,8.16,19.49,22.64,22.64,0,0,0,4.5,31.55C4.5,44.46,16.81,46,32,46c14.42,0,26.23-1.41,27.4-12.59A31.75,31.75,0,0,1,38.42,41.31Z"/><path class="cls-6" d="M13.38,43.58c0,.12,0,.23,0,.35C18.29,45.66,24.82,46,32,46q3.2,0,6.2-.12a12.56,12.56,0,0,0,.22-2.31,12.24,12.24,0,0,0-.22-2.28A31.81,31.81,0,0,1,18,33.89,12.49,12.49,0,0,0,13.38,43.58Z"/><path class="cls-6" d="M5.8,24.28a12.49,12.49,0,0,0,6,2.66A32.42,32.42,0,0,1,8.16,19.5,24.69,24.69,0,0,0,5.8,24.28Z"/><path class="cls-7" d="M38.51,7.32A12.51,12.51,0,1,0,57.69,23,27.88,27.88,0,0,0,38.51,7.32Z"/><path class="cls-7" d="M25.9,31.06A12.46,12.46,0,0,0,18,33.89,31.81,31.81,0,0,0,38.2,41.3,12.52,12.52,0,0,0,25.9,31.06Z"/><path class="cls-7" d="M26.22,14.57a12.46,12.46,0,0,0-2.08-6.9,28.28,28.28,0,0,0-16,11.83,32.42,32.42,0,0,0,3.61,7.44,13.59,13.59,0,0,0,1.93.15A12.52,12.52,0,0,0,26.22,14.57Z"/></g></g></svg>