<?xml version="1.0" encoding="UTF-8"?>
<svg id="Layer_2" data-name="Layer 2" xmlns="http://www.w3.org/2000/svg" viewBox="0 0 64 64">
  <defs>
    <style>
      .cls-1 {
        fill: #fff;
      }

      .cls-2 {
        opacity: 0;
      }

      .cls-3 {
        fill: #a72335;
      }

      .cls-4 {
        fill: #e62e49;
      }
    </style>
  </defs>
  <g id="Finals">
    <g id="Nametag">
      <g class="cls-2">
        <rect class="cls-1" width="64" height="64"/>
      </g>
      <g>
        <rect class="cls-3" x="4.5" y="10" width="55" height="44" rx="3" ry="3"/>
        <rect class="cls-4" x="4.5" y="10" width="55" height="40" rx="3" ry="3"/>
        <rect class="cls-1" x="4.5" y="23" width="55" height="22"/>
        <g>
          <path class="cls-1" d="M19.12,19.49c-.05,.11-.31,.17-.78,.2s-.8-.01-1-.1c-.09-.04-.17-.32-.26-.85s-.16-1.11-.22-1.76c-.06-.65-.11-1.28-.14-1.88-.03-.6-.04-1.01-.02-1.21,.02-.17,.16-.3,.42-.38,.26-.09,.55-.14,.86-.15,.31,0,.6,.02,.86,.08s.4,.17,.42,.3c.02,.23,.04,.51,.06,.83,.01,.32,.03,.66,.03,1.01,.23-.01,.48-.02,.73-.02-.01-.35-.02-.69-.01-1,0-.31,.01-.59,.03-.82,0-.14,.14-.24,.4-.31s.54-.1,.85-.09c.31,0,.6,.06,.86,.14,.27,.09,.41,.21,.44,.38,.03,.2,.04,.61,.03,1.21s-.03,1.23-.06,1.88-.08,1.24-.14,1.76c-.06,.52-.13,.8-.22,.85-.19,.09-.52,.13-.99,.11s-.73-.08-.79-.19c-.04-.06-.09-.22-.13-.5-.04-.28-.08-.61-.12-1.01-.15,.03-.31,.06-.47,.08-.16,.02-.31,.04-.46,.06-.02,.36-.05,.66-.08,.91-.03,.25-.06,.4-.1,.46Z"/>
          <path class="cls-1" d="M26.31,17.51c.48,0,.92-.02,1.3-.04s.62,0,.68,.08c.07,.06,.13,.32,.16,.79,.04,.46,.02,.8-.04,1.01-.03,.09-.24,.16-.65,.22-.4,.06-.86,.1-1.36,.12-.5,.02-.99,.02-1.45,.01-.46-.01-.76-.05-.9-.11-.08-.03-.15-.25-.2-.67-.05-.41-.1-.89-.13-1.44-.03-.55-.05-1.11-.05-1.69,0-.57,0-1.04,.02-1.4,0-.2,.02-.38,.05-.54,.03-.16,.08-.27,.15-.31,.07-.04,.31-.08,.73-.11s.86-.05,1.34-.06c.48,0,.93,0,1.34,.02,.41,.02,.64,.06,.71,.13,.07,.06,.12,.3,.13,.72s-.02,.73-.08,.94c-.03,.1-.22,.16-.58,.18-.36,.02-.77,.04-1.25,.06,0,.03,0,.07,0,.12s0,.08,0,.12c.31,0,.56,.03,.76,.07,.05,.01,.09,.1,.14,.25,.05,.15,.08,.31,.1,.49,.02,.18,.02,.34,0,.49-.02,.15-.07,.23-.14,.24-.06,.02-.16,.03-.3,.04-.14,.01-.3,.02-.48,.03v.24Z"/>
          <path class="cls-1" d="M31.99,13.62c.01,.13,.02,.37,.03,.72,0,.35,.01,.72,.02,1.1,0,.38,.01,.72,.02,1.03s.02,.48,.03,.52c.02,.06,.11,.1,.27,.1,.16,0,.35,0,.55,0,.2-.01,.4-.02,.58-.03,.19-.01,.31,0,.38,.01,.1,.03,.18,.18,.24,.43,.06,.25,.1,.53,.12,.82,.02,.3,.01,.57-.02,.82-.03,.25-.1,.38-.19,.41-.14,.04-.42,.07-.84,.1-.42,.03-.86,.05-1.33,.06-.47,0-.9,0-1.3-.04-.4-.03-.64-.1-.74-.2-.09-.1-.17-.42-.22-.96-.05-.54-.08-1.14-.1-1.79-.02-.65-.02-1.27-.02-1.85,0-.59,.02-.97,.04-1.16,.01-.11,.14-.19,.4-.25s.53-.08,.84-.08,.58,.02,.83,.06,.39,.11,.4,.19Z"/>
          <path class="cls-1" d="M37.76,13.62c.01,.13,.02,.37,.03,.72,0,.35,.01,.72,.02,1.1,0,.38,.01,.72,.02,1.03s.02,.48,.03,.52c.02,.06,.11,.1,.27,.1,.16,0,.35,0,.55,0,.2-.01,.4-.02,.58-.03,.19-.01,.31,0,.38,.01,.1,.03,.18,.18,.24,.43,.06,.25,.1,.53,.12,.82,.02,.3,.01,.57-.02,.82-.03,.25-.1,.38-.19,.41-.14,.04-.42,.07-.84,.1-.42,.03-.86,.05-1.33,.06-.47,0-.9,0-1.3-.04-.4-.03-.64-.1-.74-.2-.09-.1-.17-.42-.22-.96-.05-.54-.08-1.14-.1-1.79-.02-.65-.02-1.27-.02-1.85,0-.59,.02-.97,.04-1.16,.01-.11,.14-.19,.4-.25s.53-.08,.84-.08,.58,.02,.83,.06,.39,.11,.4,.19Z"/>
          <path class="cls-1" d="M47.41,16.99c-.14,.87-.56,1.56-1.26,2.09-.7,.53-1.51,.72-2.43,.56s-1.59-.57-2.1-1.27c-.51-.7-.7-1.48-.56-2.33,.13-.79,.51-1.46,1.15-1.99,.64-.54,1.38-.77,2.22-.69,1.02,.09,1.81,.47,2.37,1.16,.57,.68,.77,1.51,.61,2.47Zm-2.37-.35c.04-.24,0-.44-.13-.6-.13-.17-.31-.27-.56-.31-.23-.04-.43,.01-.61,.15-.18,.14-.28,.31-.31,.53-.04,.26,.03,.48,.21,.68,.19,.2,.42,.28,.69,.25,.19-.02,.35-.09,.47-.22,.13-.13,.21-.28,.24-.46Z"/>
        </g>
      </g>
    </g>
  </g>
</svg>