<?xml version="1.0" encoding="UTF-8"?>
<svg id="Layer_2" data-name="Layer 2" xmlns="http://www.w3.org/2000/svg" viewBox="0 0 64 64">
  <defs>
    <style>
      .cls-1 {
        fill: #fff;
      }

      .cls-2 {
        fill: #fec92b;
      }

      .cls-3 {
        fill: #cef;
      }

      .cls-4 {
        fill: #8cc936;
      }

      .cls-5 {
        opacity: 0;
      }

      .cls-6 {
        fill: #fc9504;
      }

      .cls-7 {
        fill: #e62e49;
      }

      .cls-8 {
        fill: #2698ff;
      }
    </style>
  </defs>
  <g id="Finals">
    <g id="Rainbow">
      <g class="cls-5">
        <rect class="cls-1" width="64" height="64"/>
      </g>
      <g>
        <g>
          <path class="cls-7" d="M53.71,4.51c-20.88,1.58-37.33,19.01-37.33,40.29h6.22c0-18.64,14.92-33.79,33.47-34.19v-3.9c0-1.28-1.08-2.3-2.36-2.2Z"/>
          <path class="cls-6" d="M56.07,16.83v-6.22c-18.55,.39-33.47,15.54-33.47,34.19h6.22c0-15.21,12.14-27.58,27.25-27.97Z"/>
          <path class="cls-2" d="M56.07,23.05v-6.22c-15.12,.39-27.25,12.76-27.25,27.97h6.22c0-11.77,9.35-21.36,21.03-21.75Z"/>
          <path class="cls-4" d="M56.07,29.29v-6.24c-11.68,.39-21.03,9.97-21.03,21.75h6.22c0-8.34,6.57-15.12,14.81-15.51Z"/>
          <path class="cls-8" d="M41.26,44.8h6.22c0-4.31,2.93-7.94,6.91-9,.98-.26,1.69-1.12,1.69-2.14v-4.37c-8.24,.39-14.81,7.17-14.81,15.51Z"/>
        </g>
        <path class="cls-1" d="M14.54,46.27h.21c.84-3.78,4.21-6.61,8.25-6.61,.76,0,1.48,.11,2.18,.29,1.64-3.22,4.98-5.44,8.84-5.44,4.89,0,8.94,3.54,9.76,8.2,4.04,.63,7.14,4.12,7.14,8.34,0,4.67-3.78,8.45-8.45,8.45H14.54c-3.65,0-6.61-2.96-6.61-6.61,0-3.65,2.96-6.61,6.61-6.61Z"/>
        <path class="cls-3" d="M37.34,56.29c-3.63,0-6.97-1.19-9.7-3.17-2.29,2.55-5.6,4.17-9.3,4.17-4.29,0-8.06-2.16-10.32-5.45-.05,.34-.09,.68-.09,1.04,0,3.65,2.96,6.61,6.61,6.61h27.93c4.67,0,8.45-3.78,8.45-8.45,0-.57-.06-1.13-.17-1.68-2.99,4.18-7.88,6.92-13.42,6.92Z"/>
        <path class="cls-3" d="M34.42,50.08c-2.01,.9-4.24,1.4-6.59,1.4s-4.58-.5-6.59-1.4c-.85-.38-1.71,.56-1.19,1.33,1.69,2.48,4.54,4.11,7.77,4.11s6.08-1.63,7.77-4.11c.53-.77-.34-1.71-1.19-1.33Z"/>
      </g>
    </g>
  </g>
</svg>