<svg xmlns="http://www.w3.org/2000/svg" viewBox="0 0 64 64"><defs><style>.cls-1{fill:#fff;opacity:0;}.cls-2{fill:#37b9ff;}.cls-3{fill:#96dbff;}</style></defs><title>Rain</title><g id="Layer_2" data-name="Layer 2"><g id="Layer_2-2" data-name="Layer 2"><rect class="cls-1" width="64" height="64"/><path class="cls-2" d="M56.25,50.61c1.88-6,1.73-14.87-2.87-17.43s-12.19,2-16.3,6.78a16.81,16.81,0,0,0-1.93,2.7A11.34,11.34,0,0,0,55,53.66,15.63,15.63,0,0,0,56.25,50.61Z"/><ellipse class="cls-3" cx="44.47" cy="41.39" rx="6.63" ry="3.71" transform="translate(-16.28 41.15) rotate(-42.72)"/><path class="cls-2" d="M49.27,18.43C50.71,13.82,50.6,7,47.06,5.06s-9.35,1.55-12.51,5.21a12.17,12.17,0,0,0-1.47,2.06,8.7,8.7,0,1,0,15.21,8.45A12.49,12.49,0,0,0,49.27,18.43Z"/><ellipse class="cls-3" cx="40.23" cy="11.36" rx="5.09" ry="2.85" transform="translate(2.97 30.31) rotate(-42.72)"/><path class="cls-2" d="M26.05,39.13c1.62-5.19,1.49-12.83-2.48-15S13.06,25.83,9.51,30a14.22,14.22,0,0,0-1.66,2.33A9.78,9.78,0,0,0,25,41.77,14.36,14.36,0,0,0,26.05,39.13Z"/><ellipse class="cls-3" cx="15.89" cy="31.18" rx="5.72" ry="3.2" transform="translate(-16.94 19.05) rotate(-42.72)"/></g></g></svg>