<svg xmlns="http://www.w3.org/2000/svg" viewBox="0 0 64 64"><defs><style>.cls-1,.cls-4{fill:#fff;}.cls-1{opacity:0;}.cls-2{fill:#e62e49;}.cls-3{fill:#a72d3e;}.cls-5{fill:#d3dee3;}</style></defs><title>santa-hat</title><g id="Layer_2" data-name="Layer 2"><g id="All_Icons" data-name="All Icons"><rect class="cls-1" width="64" height="64"/><path class="cls-2" d="M48.75,10.92c-4-4.87-27-5-32.19,3.56-3.94,6.6-6,19.34-6.68,25a31.47,31.47,0,0,0-.22,5.82A44.18,44.18,0,0,0,11.1,55.33l9-13a35.55,35.55,0,0,0,8-1.41c7.6-2.43,28.05-6,28.05-6S52.81,15.79,48.75,10.92Z"/><path class="cls-3" d="M23,36.48s-3.12-3.77-3.33-14a31,31,0,0,1-7.58,4.46A126.4,126.4,0,0,0,9.88,39.43a31.47,31.47,0,0,0-.22,5.82A44.18,44.18,0,0,0,11.1,55.33l9-13a35.55,35.55,0,0,0,8-1.41c.85-.27,1.86-.56,3-.85Z"/><path class="cls-4" d="M59.31,33.19a2.66,2.66,0,0,0-2.67-2.37,321.65,321.65,0,0,0-37.22,2.74,2.67,2.67,0,0,0-2.31,2.7c.05,2.73.28,5.77.47,7.88a2.67,2.67,0,0,0,2.88,2.42c11.69-1,29.89-1.56,36.15-1.75a2.68,2.68,0,0,0,2.57-2.39A43,43,0,0,0,59.31,33.19Z"/><circle class="cls-5" cx="10.63" cy="50.3" r="6.13"/><path class="cls-4" d="M10.45,44.17c-3,.07-5,1.61-5.71,4.18,0,0,0,.08,0,.12A4.11,4.11,0,0,0,9.17,52.9a4.1,4.1,0,0,0,4.43-4.43A4,4,0,0,0,10.45,44.17Z"/></g></g></svg>