<svg xmlns="http://www.w3.org/2000/svg" viewBox="0 0 128 128"><defs><style>.cls-1{fill:none;}.cls-2{fill:#bb5938;}.cls-3{fill:#a72d3e;}.cls-4{fill:#d1864b;}.cls-5{fill:#ebb369;}.cls-6{fill:#ffd59e;}.cls-7{fill:#e62e49;}.cls-8{fill:#f66;}</style></defs><title>Scroll </title><g id="Layer_2" data-name="Layer 2"><g id="_14-25" data-name="14-25"><rect class="cls-1" width="128" height="128"/><ellipse class="cls-2" cx="36.06" cy="98.1" rx="15.36" ry="22.51" transform="translate(-66.94 80.35) rotate(-60.04)"/><ellipse class="cls-3" cx="59.13" cy="70.46" rx="9.38" ry="21.09" transform="translate(-32.81 73.46) rotate(-51.86)"/><path class="cls-4" d="M17.25,80.64S3.49,88,14.63,103.11s35,20.07,40.25,11.22-10-22.74-25.11-20.27l1.6,7.27s8.83-1.94,14,4.09-1.65,9.8-11.62,5.57S15.35,97.33,18.46,90s16.85-7.23,22.12-4.19S48,96.1,53.26,106.55s13.33,14.25,21,13.31l1.83-6.52-11.61-8.07L43.88,68.16Z"/><path class="cls-5" d="M74.41,12.31s45.44-22.17,43.23,34c0,0-72.38,27.31-41.52,67,0,0-13.34,3.06-19.62-15.44S38.34,71.31,17.25,80.64C17.25,80.64,57.64,65.07,74.41,12.31Z"/><path class="cls-6" d="M74.41,12.31C59.19,60.2,24.51,77.45,18.24,80.23c10.42-4.41,18.54-4.47,24.82-1.06A193,193,0,0,1,63.28,54c12.57-12.92,28.94-29.95,38.16-44.7C89.15,5.12,74.41,12.31,74.41,12.31Z"/><path class="cls-6" d="M18.24,80.23l-1,.41S17.6,80.51,18.24,80.23Z"/><path class="cls-7" d="M83.6,41.19c-10.13-8-22.07-9.75-26.68-4a8.35,8.35,0,0,0-.9,1.45A186.53,186.53,0,0,1,42.56,57.42l3.66,2.88-.08-.21s20.32-.55,25.78,20.44l3.78,3a59.26,59.26,0,0,1,14.85-15c.27-.19.56-.36.84-.53a6.85,6.85,0,0,0,.77-.51h0A7.83,7.83,0,0,0,93.6,66.1C98.21,60.31,93.73,49.16,83.6,41.19Z"/><path class="cls-8" d="M56.92,37.23a8.35,8.35,0,0,0-.9,1.45A186.53,186.53,0,0,1,42.56,57.42l3.38,2.66h.2a7.26,7.26,0,0,1,7.31-1.42c11.07,1.29,30,4,27-10.81a24.36,24.36,0,0,0-6.31-12.17C66.92,32.84,60.14,33.19,56.92,37.23Z"/><path class="cls-3" d="M65,63.12c-9.15-7.2-19.19-9.76-22.41-5.7l3.66,2.88-.08-.21s19.72,1.17,25.78,20.44l3.78,3c.1-.13.19-.26.28-.4C78.62,78.88,73.84,70.1,65,63.12Z"/></g></g></svg>