<?xml version="1.0" encoding="UTF-8"?>
<svg id="Layer_2" data-name="Layer 2" xmlns="http://www.w3.org/2000/svg" viewBox="0 0 64 64">
  <defs>
    <style>
      .cls-1 {
        fill: #ffdfb5;
      }

      .cls-1, .cls-2, .cls-3, .cls-4, .cls-5, .cls-6, .cls-7 {
        stroke-width: 0px;
      }

      .cls-2 {
        fill: #d1774b;
      }

      .cls-8 {
        opacity: 0;
      }

      .cls-3 {
        fill: #eba969;
      }

      .cls-4 {
        fill: #f5c89a;
      }

      .cls-5 {
        fill: #5d7c8c;
      }

      .cls-6 {
        fill: #fff;
      }

      .cls-7 {
        fill: #de925a;
      }
    </style>
  </defs>
  <g id="Exports_2" data-name="Exports 2">
    <g>
      <g class="cls-8">
        <rect class="cls-6" width="64" height="64"/>
      </g>
      <g>
        <path class="cls-3" d="M49.1,17.58s-9.69-9.05-33.66.29c0,0,.81,1.79-2.73,8.34-5.63,10.4-5.22,20-4.44,24.92.39,2.42,2.01,4.41,4.28,5.27,4.62,1.74,14.54,3.92,33.97,2.79l2.58-41.61Z"/>
        <path class="cls-7" d="M48.5,19.65s-11.87-6.41-32.85-.71c0,0-3.62-1.88-4.41-5.94-.34-1.79.69-3.53,2.4-4.07,6.29-1.99,23.5-6.65,37.43-3.19l-2.57,13.91Z"/>
        <path class="cls-7" d="M24.33,46.6c-10.71-1.32-14.11-7.19-14.85-12.59-2.15,7.24-1.79,13.48-1.2,17.12.39,2.42,2.01,4.41,4.28,5.27,4.62,1.74,14.54,3.92,33.97,2.79l1.71-27.53c-2.72,6.19-9.5,16.71-23.9,14.94Z"/>
        <path class="cls-2" d="M46.52,59.19s-4.88-17.04,2.58-41.61c0,0,2.51-2.15,2.63,1.32.28,7.77,3.36,17.22,4.17,22.85.88,6.08-.56,10.63-1.64,13.02-.52,1.16-1.48,2.05-2.63,2.48l-5.11,1.93Z"/>
        <path class="cls-2" d="M53.66,13.4c-.43,3.96-2.3,6.98-4.17,6.73s-3.06-3.69-2.62-7.68c.44-3.99,2.32-6.99,4.19-6.71,1.87.28,3.03,3.7,2.6,7.66Z"/>
        <g>
          <path class="cls-1" d="M37.07,44.49c.57-1.21,1.02-2.52,1.33-3.91,1.79-8.09-1.85-15.77-8.15-17.17-6.29-1.4-12.85,4.02-14.65,12.11-.64,2.9-.58,5.74.05,8.27,2.15,1.34,4.96,2.35,8.67,2.8,5.19.64,9.37-.33,12.75-2.1Z"/>
          <path class="cls-4" d="M23.76,52.69c5.21,1.16,10.59-2.37,13.31-8.2-3.38,1.77-7.56,2.74-12.75,2.1-3.71-.46-6.52-1.47-8.67-2.8,1.12,4.52,4.06,8.01,8.1,8.9Z"/>
        </g>
        <g>
          <path class="cls-5" d="M23.3,30.21c-1.47-.21-3.29,3.97-3.8,7.56-.26,1.84.71,3.5,2.18,3.71s2.88-1.11,3.14-2.94c.52-3.6-.05-8.12-1.52-8.33Z"/>
          <path class="cls-5" d="M33.06,32.72c-2.46-1.08-5.86-1.11-6.39.48-.53,1.59,2.02,4.19,4.48,5.28,1.25.55,2.7-.29,3.23-1.88.53-1.59-.06-3.33-1.32-3.88Z"/>
          <path class="cls-5" d="M25.74,42.07c-1.23.81-1.76,2.67-1.18,4.14.58,1.48,2.05,2.01,3.28,1.2,2.41-1.59,4.86-4.71,4.28-6.19-.58-1.48-3.97-.75-6.38.84Z"/>
        </g>
      </g>
    </g>
  </g>
</svg>