<?xml version="1.0" encoding="UTF-8"?>
<svg id="Layer_2" data-name="Layer 2" xmlns="http://www.w3.org/2000/svg" viewBox="0 0 64 64">
  <defs>
    <style>
      .cls-1 {
        fill: #d1774b;
      }

      .cls-1, .cls-2, .cls-3, .cls-4, .cls-5 {
        stroke-width: 0px;
      }

      .cls-6 {
        opacity: 0;
      }

      .cls-2 {
        fill: #eba969;
      }

      .cls-3 {
        fill: #fff;
      }

      .cls-4 {
        fill: #de925a;
      }

      .cls-5 {
        fill: #bb5938;
      }
    </style>
  </defs>
  <g id="Exports_2" data-name="Exports 2">
    <g>
      <g class="cls-6">
        <rect class="cls-3" width="64" height="64"/>
      </g>
      <g>
        <path class="cls-5" d="M27.87,27.18c2.45,7.2-.57,12.53-5.9,14.34-5.33,1.81-10.97-.58-13.41-7.78-3.71-10.94-2.52-21.63,2.81-23.44,5.33-1.81,12.79,5.95,16.5,16.88Z"/>
        <path class="cls-4" d="M18.63,23.73c.52,3.11-1.07,5.08-3.37,5.47-2.3.38-4.44-.97-4.96-4.08-.79-4.72.41-9.01,2.72-9.4s4.83,3.29,5.62,8Z"/>
        <path class="cls-1" d="M53.22,10.15c5.02,3.72,5.47,8.73,2.72,12.45-2.76,3.72-7.68,4.74-12.7,1.02-7.63-5.66-11.82-13.44-9.07-17.16,2.76-3.72,11.43-1.96,19.05,3.69Z"/>
        <path class="cls-5" d="M45.9,56.57c-4.03,3.94-8.55,3.64-11.47.66-2.92-2.98-3.13-7.51.89-11.45,6.11-5.99,13.64-8.63,16.56-5.64,2.92,2.98.13,10.45-5.98,16.44Z"/>
        <path class="cls-4" d="M43.66,48.41c-1.94,1.47-3.67,1.36-4.51.24-.85-1.11-.49-2.81,1.45-4.28,2.95-2.24,6.12-3.22,6.97-2.11s-.95,3.91-3.9,6.14Z"/>
        <path class="cls-2" d="M43.02,8.53c1.44,1.07,1.42,2.7.45,4.01-.97,1.31-2.53,1.8-3.97.74-2.19-1.62-3.24-4.05-2.27-5.36.97-1.31,3.61-1.01,5.79.61Z"/>
      </g>
    </g>
  </g>
</svg>