<svg xmlns="http://www.w3.org/2000/svg" viewBox="0 0 47.92 55"><defs><style>.cls-1{fill:#fff;}.cls-2{fill:#cef;}.cls-3{fill:#73adff;}.cls-4{fill:#96dbff;}</style></defs><title>Snowflake</title><g id="Layer_2" data-name="Layer 2"><g id="Layer_2-2" data-name="Layer 2"><path class="cls-1" d="M23.2.32,18.33,5.18a1.09,1.09,0,0,0,0,1.53l3.24,3.23v8.69L24,17.25V0A1.07,1.07,0,0,0,23.2.32Z"/><path class="cls-2" d="M26.35,9.94l3.24-3.23a1.09,1.09,0,0,0,0-1.53L24.72.32A1.07,1.07,0,0,0,24,0V17.25l2.39,1.38Z"/><path class="cls-3" d="M26.35,45.06V36.37L24,37.75V55a1.07,1.07,0,0,0,.76-.32l4.87-4.86a1.09,1.09,0,0,0,0-1.53Z"/><path class="cls-4" d="M21.57,36.37v8.69l-3.24,3.23a1.09,1.09,0,0,0,0,1.53l4.87,4.86A1.07,1.07,0,0,0,24,55V37.75Z"/><path class="cls-3" d="M.8,41.75l6.65,1.78a1.07,1.07,0,0,0,1.32-.76L10,38.35,17.48,34l-2.4-1.38L.14,41.25A1.05,1.05,0,0,0,.8,41.75Z"/><path class="cls-4" d="M7.56,34.21,3.14,33a1.08,1.08,0,0,0-1.32.76L0,40.43a1.1,1.1,0,0,0,.1.82l14.94-8.62V29.86Z"/><path class="cls-1" d="M38,16.65,30.45,21l2.39,1.38,14.94-8.62a1.05,1.05,0,0,0-.66-.5l-6.65-1.78a1.07,1.07,0,0,0-1.32.76Z"/><path class="cls-2" d="M32.84,25.14l7.52-4.35L44.78,22a1.08,1.08,0,0,0,1.32-.76l1.78-6.65a1.1,1.1,0,0,0-.1-.82L32.84,22.37Z"/><path class="cls-2" d="M47.88,40.43,46.1,33.78A1.08,1.08,0,0,0,44.78,33l-4.42,1.19-7.52-4.35v2.77l14.94,8.62A1.1,1.1,0,0,0,47.88,40.43Z"/><path class="cls-3" d="M38,38.35l1.18,4.42a1.07,1.07,0,0,0,1.32.76l6.65-1.78a1.05,1.05,0,0,0,.66-.5L32.84,32.63,30.45,34Z"/><path class="cls-4" d="M7.56,20.79l7.52,4.35V22.37L.14,13.75a1.1,1.1,0,0,0-.1.82l1.78,6.65A1.08,1.08,0,0,0,3.14,22Z"/><path class="cls-1" d="M17.48,21,10,16.65,8.77,12.23a1.07,1.07,0,0,0-1.32-.76L.8,13.25a1.05,1.05,0,0,0-.66.5l14.94,8.62Z"/><polygon class="cls-2" points="34.38 21.48 37.33 19.78 23.96 12.06 23.96 15.47 34.38 21.48"/><polygon class="cls-4" points="13.54 33.52 13.54 33.52 10.59 35.22 23.96 42.94 23.96 39.53 13.54 33.52"/><polygon class="cls-4" points="13.54 21.48 10.59 19.78 10.59 35.22 13.54 33.52 13.54 21.48"/><polygon class="cls-2" points="34.38 21.48 34.38 21.48 34.38 33.52 34.38 33.52 37.33 35.22 37.33 19.78 34.38 21.48"/><polygon class="cls-3" points="23.96 39.53 23.96 42.94 37.33 35.22 34.38 33.52 23.96 39.53"/><polygon class="cls-1" points="13.54 21.48 23.96 15.47 23.96 12.06 10.59 19.78 13.54 21.48 13.54 21.48"/><polygon class="cls-1" points="23.96 35.63 23.96 39.53 34.38 33.52 31 31.57 23.96 35.63"/><polygon class="cls-3" points="23.96 19.37 23.96 15.47 13.54 21.48 13.54 21.48 16.92 23.43 23.96 19.37"/><polygon class="cls-2" points="16.92 31.57 16.92 23.43 16.92 23.43 13.54 21.48 13.54 33.52 16.92 31.57 16.92 31.57"/><polygon class="cls-1" points="16.92 31.57 13.54 33.52 13.54 33.52 23.96 39.53 23.96 35.63 16.92 31.57"/><polygon class="cls-3" points="23.96 19.37 31 23.43 34.38 21.48 23.96 15.47 23.96 19.37"/><polygon class="cls-4" points="31 23.43 31 31.57 31 31.57 34.38 33.52 34.38 33.52 34.38 21.48 34.38 21.48 31 23.43 31 23.43"/></g></g></svg>