<svg xmlns="http://www.w3.org/2000/svg" viewBox="0 0 64 64"><defs><style>.cls-1{fill:#fff;opacity:0;}.cls-2{fill:#fdbc0d;}.cls-3{fill:#fee854;}</style></defs><title>Sparkle</title><g id="Layer_2" data-name="Layer 2"><g id="Layer_2-2" data-name="Layer 2"><rect class="cls-1" width="64" height="64"/><path class="cls-2" d="M57.67,18.66,48,14.84l-3.82-9.7a1,1,0,0,0-1.88,0l-3.83,9.7-9.69,3.82a1,1,0,0,0,0,1.88l9.69,3.83,3.83,9.7a1,1,0,0,0,1.88,0L48,24.37l9.7-3.83A1,1,0,0,0,57.67,18.66Z"/><path class="cls-3" d="M28.43,34.16,21.18,31.3l-2.86-7.25a1,1,0,0,0-1.88,0L13.58,31.3,6.33,34.16a1,1,0,0,0,0,1.88l7.25,2.86,2.86,7.26a1,1,0,0,0,1.88,0l2.86-7.26L28.43,36A1,1,0,0,0,28.43,34.16Z"/><path class="cls-3" d="M45.69,49.45l-5.4-2.13-2.13-5.4a1,1,0,0,0-1.88,0l-2.13,5.4-5.4,2.13a1,1,0,0,0,0,1.88l5.4,2.13,2.13,5.4a1,1,0,0,0,1.88,0l2.13-5.4,5.4-2.13A1,1,0,0,0,45.69,49.45Z"/></g></g></svg>