<svg xmlns="http://www.w3.org/2000/svg" viewBox="0 0 64 64"><defs><style>.cls-1{fill:#1a1a1a;opacity:0;}.cls-2{fill:#fc9504;}.cls-3{fill:#fec92b;}.cls-4{fill:#fee854;}</style></defs><title>Star 2</title><g id="Layer_2" data-name="Layer 2"><g id="Layer_3" data-name="Layer 3"><rect class="cls-1" width="64" height="64"/><path class="cls-2" d="M32,51.78s-13.29,8.66-16.93,6,.5-18,.5-18-12.35-10-11-14.24,17.23-5.08,17.23-5.08S27.51,5.7,32,5.7,42.16,20.52,42.16,20.52,58,21.33,59.39,25.6s-11,14.24-11,14.24,4.13,15.32.5,18S32,51.78,32,51.78Z"/><path class="cls-3" d="M32,34.77c10.75,0,20.47-3.25,27.49-8.49a2.15,2.15,0,0,0-.1-.68C58,21.33,42.16,20.52,42.16,20.52S36.49,5.7,32,5.7,21.84,20.52,21.84,20.52,6,21.33,4.61,25.6a2.15,2.15,0,0,0-.1.68C11.53,31.52,21.25,34.77,32,34.77Z"/><path class="cls-4" d="M32.11,10.52c1.4.71,1.62,3.07.49,5.27S29.44,19.2,28,18.49s-1.07-2.8.06-5S30.72,9.81,32.11,10.52Z"/></g></g></svg>