<svg xmlns="http://www.w3.org/2000/svg" viewBox="0 0 64 64"><defs><style>.cls-1{fill:none;}.cls-2{isolation:isolate;}.cls-3{fill:#a72d3e;}.cls-4{fill:#e62e49;}.cls-5{fill:#fc9504;}.cls-6{fill:#fdbc0d;}.cls-7{fill:#1778ff;}.cls-8{fill:#37b9ff;}</style></defs><title>Stats</title><g id="Layer_2" data-name="Layer 2"><g id="Layer_2-2" data-name="Layer 2"><rect class="cls-1" width="64" height="64"/><g class="cls-2"><polygon class="cls-3" points="46.23 52.06 35.34 47.75 35.72 15.05 46.95 18.22 46.23 52.06"/><polygon class="cls-3" points="46.95 18.22 35.72 15.05 44.7 13.34 56 16.38 46.95 18.22"/><polygon class="cls-4" points="56 16.38 55.04 49.5 46.23 52.06 46.95 18.22 56 16.38"/></g><g class="cls-2"><polygon class="cls-5" points="33 55.9 22.25 51.31 22.25 5.56 33.45 8.5 33 55.9"/><polygon class="cls-5" points="33.45 8.5 22.25 5.56 31.93 4 43.24 6.81 33.45 8.5"/><polygon class="cls-6" points="43.24 6.81 42.41 53.16 33 55.9 33.45 8.5 43.24 6.81"/></g><g class="cls-2"><polygon class="cls-7" points="18.85 60 8.28 55.1 8 32.53 18.77 36.61 18.85 60"/><polygon class="cls-7" points="18.77 36.61 8 32.53 18.15 30.31 29.06 34.2 18.77 36.61"/><polygon class="cls-8" points="29.06 34.2 28.93 57.08 18.85 60 18.77 36.61 29.06 34.2"/></g></g></g></svg>