<svg xmlns="http://www.w3.org/2000/svg" viewBox="0 0 64 64"><defs><style>.cls-1{opacity:0;}.cls-2{fill:#fff;}.cls-3{fill:#bb5938;}.cls-4{fill:#009245;}.cls-5{fill:#006837;}.cls-6{fill:#d1864b;}</style></defs><title>Tree Evergreen</title><g id="Layer_2" data-name="Layer 2"><g id="_101-200" data-name="101-200"><g class="cls-1"><rect class="cls-2" width="64" height="64"/></g><path class="cls-3" d="M38.89,57.23,37,53.44,35.79,41.28h-7.6L27,53.44h0L25.1,57.23a.43.43,0,0,0,.51.61L29,56.79l2.19,2.36a1.11,1.11,0,0,0,1.61,0L35,56.79l3.38,1.05A.44.44,0,0,0,38.89,57.23Z"/><path class="cls-4" d="M32,49.25a37.59,37.59,0,0,0,16.64-3.86,2,2,0,0,0,.71-3L33.6,21.6a2,2,0,0,0-3.21,0L14.65,42.35a2,2,0,0,0,.71,3A37.55,37.55,0,0,0,32,49.25Z"/><path class="cls-5" d="M39.48,29.36l-6.83,2L31,35s20.75,3.59,10.53,13a37.23,37.23,0,0,0,7.12-2.63,2,2,0,0,0,.71-3Z"/><path class="cls-4" d="M32,35.14A31.72,31.72,0,0,0,45.72,32a2,2,0,0,0,.72-3L33.6,12.08a2,2,0,0,0-3.21,0L17.55,29a2,2,0,0,0,.71,3A31.75,31.75,0,0,0,32,35.14Z"/><path class="cls-5" d="M46.44,29,35.11,14.07,33.85,16s2,.6,5.58,8.15S31,35,31,35v.08l1,0A31.72,31.72,0,0,0,45.72,32,2,2,0,0,0,46.44,29Z"/><path class="cls-4" d="M32,17.65a18.24,18.24,0,0,0,6.79-1.3,2,2,0,0,0,.85-3.1l-6-7.95a2,2,0,0,0-3.21,0l-6,8a2,2,0,0,0,.86,3.1A18.18,18.18,0,0,0,32,17.65Z"/><path class="cls-5" d="M36.32,13.49c-.43,3-6.1,3.88-6.77,4a17.85,17.85,0,0,0,2.44.18,18.24,18.24,0,0,0,6.79-1.3,2,2,0,0,0,.85-3.1L34.9,7h0A11.94,11.94,0,0,1,36.32,13.49Z"/><path class="cls-6" d="M32.35,54a2.23,2.23,0,0,0-2.07-2,29.7,29.7,0,0,1-3.13-.39L27,53.44,25.1,57.23a.43.43,0,0,0,.51.61L29,56.79l2.19,2.36a1.15,1.15,0,0,0,.7.33A17.38,17.38,0,0,0,32.35,54Z"/></g></g></svg>