<svg xmlns="http://www.w3.org/2000/svg" viewBox="0 0 64 64"><defs><style>.cls-1{fill:#1a1a1a;opacity:0;}.cls-2{fill:#1e6ba8;}.cls-3{fill:#2e9be6;}.cls-4{fill:#fff;}</style></defs><title>Blood</title><g id="Layer_2" data-name="Layer 2"><g id="Layer_3" data-name="Layer 3"><rect class="cls-1" width="64" height="64"/><path class="cls-2" d="M51.75,37.25a19.75,19.75,0,0,1-39.5,0C12.25,26.35,24.26,7,32,7S51.75,26.35,51.75,37.25Z"/><path class="cls-3" d="M32,39.47A13.38,13.38,0,0,0,41,36a8.29,8.29,0,0,0,1.82-9.26C40.09,20.11,35.71,14.45,32,14.45s-8.09,5.67-10.82,12.26A8.29,8.29,0,0,0,23,36,13.4,13.4,0,0,0,32,39.47Z"/><ellipse class="cls-3" cx="41.05" cy="45.49" rx="5.89" ry="3.3" transform="translate(-20.14 42.35) rotate(-45)"/><ellipse class="cls-4" cx="24.39" cy="22.61" rx="5.97" ry="3.34" transform="translate(-7.24 32.88) rotate(-60.82)"/></g></g></svg>