<?xml version="1.0" encoding="UTF-8"?>
<svg id="Layer_2" data-name="Layer 2" xmlns="http://www.w3.org/2000/svg" viewBox="0 0 64 64">
  <defs>
    <style>
      .cls-1 {
        fill: #fff;
      }

      .cls-2 {
        fill: #5414b3;
      }

      .cls-3 {
        opacity: 0;
      }

      .cls-4 {
        fill: #ee87ff;
      }

      .cls-5 {
        fill: #c442ff;
      }

      .cls-6 {
        fill: #a0f;
      }

      .cls-7 {
        fill: #96dbff;
      }

      .cls-8 {
        fill: #2698ff;
      }
    </style>
  </defs>
  <g id="Finals">
    <g id="XP_Purple" data-name="XP Purple">
      <g class="cls-3">
        <rect class="cls-1" width="64" height="64"/>
      </g>
      <g>
        <path class="cls-8" d="M32,28.7h0S8.62,8.89,8.62,8.89l-3.37-2.98c-.54,.62-.83,1.46-.72,2.35l4.65,36.95c.08,.63,.31,1.23,.66,1.74l3.3-2.23L32,28.7Z"/>
        <path class="cls-5" d="M58.75,5.91l-3.38,2.97L32,28.7l18.88,16,3.29,2.24c.35-.51,.58-1.11,.65-1.74l4.65-36.95c.11-.89-.18-1.73-.72-2.35Z"/>
        <path class="cls-4" d="M32,28.7h0v30.39c.66,0,1.32-.16,1.92-.49l18.88-10.41c.56-.31,1.02-.74,1.37-1.25l-3.29-2.24-18.88-16Z"/>
        <path class="cls-5" d="M13.13,44.71l-3.3,2.23c.35,.51,.81,.94,1.37,1.25l18.88,10.41c.6,.33,1.26,.49,1.92,.49V28.7S13.13,44.71,13.13,44.71Z"/>
        <path class="cls-7" d="M32,28.7h0S55.37,8.88,55.37,8.88l3.38-2.97c-.54-.62-1.34-1.01-2.24-1.01H7.49c-.9,0-1.7,.39-2.24,1.01l3.37,2.98L32,28.7Z"/>
        <polygon class="cls-2" points="13.13 44.71 8.62 8.89 55.37 8.88 50.88 44.7 32 55.12 13.13 44.71"/>
        <polygon class="cls-6" points="19.8 40.22 16.88 17.07 47.11 17.06 44.2 40.21 32 46.94 19.8 40.22"/>
        <g>
          <path class="cls-1" d="M28.31,20.1c.17-.04,.47,.09,.89,.39,.42,.3,.85,.67,1.3,1.11s.87,.9,1.26,1.39c.39,.48,.64,.89,.76,1.22,.08,.24-.24,.81-.97,1.73-.73,.92-1.64,1.97-2.73,3.16,.99,1.13,1.82,2.12,2.48,2.97,.66,.85,1.01,1.4,1.05,1.65,.05,.18-.07,.49-.34,.92s-.62,.88-1.03,1.35c-.41,.47-.85,.91-1.32,1.31-.47,.4-.86,.66-1.18,.78-.23,.08-.82-.24-1.76-.96-.95-.72-1.96-1.63-3.04-2.71-.9,.88-1.7,1.65-2.41,2.3-.71,.65-1.21,1.09-1.52,1.31-.4,.29-.95,.24-1.64-.15-.69-.39-1.34-.92-1.96-1.57s-1.1-1.33-1.45-2.03c-.35-.7-.4-1.2-.14-1.52,.4-.47,.91-1.04,1.54-1.69s1.3-1.35,2.03-2.09c-1.73-1.76-2.85-2.97-3.37-3.65-.31-.39-.28-.94,.09-1.64,.37-.7,.87-1.36,1.51-1.98,.63-.62,1.29-1.12,1.98-1.48,.69-.36,1.19-.41,1.53-.15,.5,.41,1.08,.93,1.74,1.55s1.36,1.31,2.09,2.04c1.11-1,2.09-1.84,2.94-2.52s1.4-1.03,1.65-1.05Z"/>
          <path class="cls-1" d="M49.48,28.3c-.28,1.75-1.07,3.21-2.39,4.39s-2.89,1.68-4.72,1.51c-.07,.91-.16,1.67-.25,2.29-.1,.62-.21,1-.32,1.15-.17,.31-.97,.49-2.42,.56-1.45,.06-2.47-.04-3.07-.3-.27-.12-.51-.91-.71-2.37-.21-1.46-.38-3.11-.51-4.94-.13-1.83-.21-3.59-.25-5.28-.04-1.69-.03-2.82,.02-3.4,.06-.54,.51-.95,1.37-1.23,.85-.28,1.85-.46,2.97-.53,1.13-.07,2.26-.05,3.4,.08,1.14,.12,2.03,.32,2.67,.59,3.36,1.42,4.77,3.91,4.22,7.48Zm-5.08-1.42c-.18-.85-.76-1.33-1.73-1.43-.18,0-.33,0-.44,.01-.76,.13-1.1,.67-1.03,1.62,.07,.95,.32,1.56,.76,1.84,.19,.13,.48,.17,.86,.09,.58-.09,1.01-.33,1.29-.74,.29-.41,.38-.87,.28-1.4Z"/>
        </g>
      </g>
    </g>
  </g>
</svg>